# File created by Blade
# Date/Time:  Wed Jan 21 16:20:01 2015
# Frame Rate: 120.000 fps
#------------------------------------------------------
:FULLY-SPECIFIED
:DEGREES
872
root 14.638514 37.173143 -19.775819 -180.422648 -15.700985 -160.586321
Spine -4.878221 2.008141 3.224098
Head 22.292053 -26.452184 9.907128
LeftShoulder -11.551177 -18.979399 3.384749
LeftArm -35.568973 1.487881 -60.339783
LeftForeArm -7.958768 -0.000000 12.650475
LeftHand -0.702122 -0.000000 -0.200029
LeftHandThumb1 -26.253704 0.000000 33.147579
RightShoulder -11.311369 -6.581961 7.945634
RightArm 34.169923 3.157743 66.639928
RightForeArm -31.666007 -0.000000 65.287609
RightHand -9.854604 0.000000 0.304626
RightHandThumb1 -24.326973 -0.000000 -32.862282
LeftUpLeg 3.550881 6.513596 12.120110
LeftLeg -14.450446 -0.000000 0.000000
LeftFoot 2.092950 14.495271 2.216745
LeftToeBase -148.499880 -0.000000 0.000000
RightUpLeg -2.414473 -18.818611 -8.092107
RightLeg 4.092564 -0.000000 -0.000000
RightFoot 9.535572 -33.603276 3.017321
RightToeBase 3.691120 -0.000000 -0.000000
873
root 14.697388 37.151900 -19.759989 -180.412674 -15.538202 -160.690280
Spine -4.803508 1.972699 3.038232
Head 22.117270 -26.208998 9.944234
LeftShoulder -11.358919 -19.003124 3.303629
LeftArm -35.065715 1.770138 -61.259974
LeftForeArm -7.561891 -0.000000 12.974536
LeftHand -0.692524 -0.000000 0.257573
LeftHandThumb1 -26.253704 0.000000 33.147579
RightShoulder -11.321432 -6.798061 8.158143
RightArm 34.143546 2.313175 66.302233
RightForeArm -31.714829 -0.000000 65.662565
RightHand -9.892049 -0.000000 0.434355
RightHandThumb1 -24.326973 -0.000000 -32.862282
LeftUpLeg 3.618761 6.605325 12.094540
LeftLeg -14.537132 -0.000000 0.000000
LeftFoot 1.965029 14.625041 2.343922
LeftToeBase -148.693664 -0.000000 0.000000
RightUpLeg -2.563057 -18.668595 -7.827794
RightLeg 4.224613 -0.000000 -0.000000
RightFoot 9.638501 -33.407352 3.163724
RightToeBase 3.441958 -0.000000 -0.000000
874
root 14.756259 37.129453 -19.744357 -180.401791 -15.355560 -160.775425
Spine -4.746236 1.929711 2.909479
Head 21.985596 -25.942881 9.923627
LeftShoulder -11.215352 -19.026185 3.207434
LeftArm -34.538857 2.042577 -62.133663
LeftForeArm -7.234277 -0.000000 13.293966
LeftHand -0.633681 -0.000000 0.503582
LeftHandThumb1 -26.253704 0.000000 33.147579
RightShoulder -11.323675 -6.906980 8.292983
RightArm 33.963377 1.243345 65.822140
RightForeArm -31.592739 0.000000 66.028036
RightHand -10.085341 -0.000000 0.219319
RightHandThumb1 -24.326973 -0.000000 -32.862282
LeftUpLeg 3.684105 6.718232 12.085589
LeftLeg -14.612376 -0.000000 0.000000
LeftFoot 1.920528 14.704613 2.460559
LeftToeBase -148.639799 -0.000000 0.000000
RightUpLeg -2.711457 -18.455765 -7.505746
RightLeg 4.344324 -0.000000 -0.000000
RightFoot 9.482897 -33.316279 3.525438
RightToeBase 3.797014 -0.000000 -0.000000
875
root 14.821224 37.107884 -19.725654 -180.373976 -15.153664 -160.876742
Spine -4.700525 1.945320 2.731284
Head 21.833252 -25.716235 9.969289
LeftShoulder -11.020655 -19.098092 3.126659
LeftArm -34.018863 2.310528 -62.960381
LeftForeArm -6.849022 -0.000000 13.592605
LeftHand -0.623557 -0.000000 0.713924
LeftHandThumb1 -26.253704 0.000000 33.147579
RightShoulder -11.362727 -7.165278 8.537510
RightArm 33.975590 0.306413 65.370736
RightForeArm -31.572748 0.000000 66.296025
RightHand -10.086062 0.000000 0.173380
RightHandThumb1 -24.326973 -0.000000 -32.862282
LeftUpLeg 3.724653 6.873736 12.074232
LeftLeg -14.669004 -0.000000 0.000000
LeftFoot 1.749645 14.804271 2.581234
LeftToeBase -148.840441 -0.000000 0.000000
RightUpLeg -2.896006 -18.210097 -7.144233
RightLeg 4.463279 -0.000000 -0.000000
RightFoot 9.359376 -33.221901 3.774239
RightToeBase 4.356334 -0.000000 -0.000000
876
root 14.894069 37.088828 -19.704018 -180.368850 -15.051450 -160.918211
Spine -4.630388 1.831411 2.627141
Head 21.690421 -25.456999 9.962572
LeftShoulder -10.895824 -19.188367 3.057381
LeftArm -33.407067 2.586953 -63.787826
LeftForeArm -6.220456 0.000000 13.808321
LeftHand -0.662294 -0.000000 1.054925
LeftHandThumb1 -26.253704 0.000000 33.147579
RightShoulder -11.386573 -7.483147 8.838281
RightArm 34.072212 -0.484959 64.965758
RightForeArm -31.836206 -0.000000 66.561242
RightHand -9.784403 -0.000000 0.606424
RightHandThumb1 -24.326973 -0.000000 -32.862282
LeftUpLeg 3.680995 6.870042 12.131885
LeftLeg -14.613849 -0.000000 0.000000
LeftFoot 1.572466 14.910335 2.676204
LeftToeBase -148.811953 -0.000000 0.000000
RightUpLeg -3.034338 -18.028087 -6.681568
RightLeg 4.549800 -0.000000 -0.000000
RightFoot 9.255527 -33.172074 4.029522
RightToeBase 4.620239 -0.000000 -0.000000
877
root 14.964800 37.065684 -19.684983 -180.355505 -14.914046 -160.978479
Spine -4.599437 1.710629 2.526718
Head 21.591230 -25.153210 9.943243
LeftShoulder -10.797458 -19.219584 2.989673
LeftArm -32.798973 2.819736 -64.561909
LeftForeArm -5.796904 0.000000 14.134008
LeftHand -0.847352 -0.000000 1.259071
LeftHandThumb1 -26.253704 0.000000 33.147579
RightShoulder -11.288747 -7.665998 9.037283
RightArm 33.921520 -1.377367 64.577379
RightForeArm -31.804519 0.000000 66.810567
RightHand -9.696598 -0.000000 0.674487
RightHandThumb1 -24.326973 -0.000000 -32.862282
LeftUpLeg 3.637789 6.932056 12.165914
LeftLeg -14.532571 -0.000000 0.000000
LeftFoot 1.269452 15.012967 2.798838
LeftToeBase -148.997407 -0.000000 0.000000
RightUpLeg -3.202873 -17.838517 -6.207342
RightLeg 4.681359 -0.000000 -0.000000
RightFoot 9.037838 -33.088006 4.449788
RightToeBase 4.639146 -0.000000 -0.000000
878
root 15.035527 37.038870 -19.661936 -180.306601 -14.770359 -161.034564
Spine -4.607504 1.667549 2.437644
Head 21.447390 -24.879325 9.982924
LeftShoulder -10.651952 -19.153176 2.888867
LeftArm -32.089160 3.076160 -65.352985
LeftForeArm -5.474150 0.000000 14.491495
LeftHand -0.923004 -0.000000 1.378364
LeftHandThumb1 -26.253704 0.000000 33.147579
RightShoulder -11.310215 -8.046224 9.304610
RightArm 33.999668 -2.159510 64.198272
RightForeArm -31.911242 -0.000000 67.010993
RightHand -9.532200 -0.000000 0.874233
RightHandThumb1 -24.326973 -0.000000 -32.862282
LeftUpLeg 3.513205 7.030998 12.192678
LeftLeg -14.385597 -0.000000 0.000000
LeftFoot 0.902509 15.081960 2.980495
LeftToeBase -149.261671 -0.000000 0.000000
RightUpLeg -3.396331 -17.598885 -5.687043
RightLeg 4.772073 -0.000000 -0.000000
RightFoot 8.755075 -33.029404 4.780558
RightToeBase 4.891669 -0.000000 -0.000000
879
root 15.102725 37.007762 -19.641254 -180.280887 -14.688570 -161.123622
Spine -4.587008 1.568429 2.346787
Head 21.342398 -24.655828 9.864599
LeftShoulder -10.477143 -19.300393 2.752874
LeftArm -31.664176 3.842488 -66.297265
LeftForeArm -5.610471 0.000000 15.006968
LeftHand -1.015380 -0.000000 1.773929
LeftHandThumb1 -26.253704 0.000000 33.147579
RightShoulder -11.210381 -8.140576 9.432201
RightArm 33.658619 -2.889149 64.023422
RightForeArm -31.999382 -0.000000 67.306521
RightHand -9.405261 0.000000 1.273206
RightHandThumb1 -24.326973 -0.000000 -32.862282
LeftUpLeg 3.383430 7.031651 12.173072
LeftLeg -14.233812 -0.000000 0.000000
LeftFoot 0.627578 15.252065 3.302172
LeftToeBase -149.642309 -0.000000 0.000000
RightUpLeg -3.544739 -17.547614 -5.195600
RightLeg 4.885523 -0.000000 -0.000000
RightFoot 8.272485 -32.842345 5.321130
RightToeBase 4.933773 -0.000000 -0.000000
880
root 15.173374 36.975295 -19.622991 -180.265115 -14.616079 -161.203361
Spine -4.556467 1.463541 2.243686
Head 21.175199 -24.384290 9.900007
LeftShoulder -10.355228 -19.325037 2.672243
LeftArm -30.991619 4.205344 -67.052148
LeftForeArm -5.421846 -0.000000 15.319318
LeftHand -0.981494 -0.000000 1.896325
LeftHandThumb1 -26.253704 0.000000 33.147579
RightShoulder -11.221483 -8.472388 9.717947
RightArm 33.665415 -3.578712 63.719267
RightForeArm -32.223817 -0.000000 67.471545
RightHand -9.235895 0.000000 1.612396
RightHandThumb1 -24.326973 -0.000000 -32.862282
LeftUpLeg 3.271775 6.967367 12.154082
LeftLeg -14.137513 -0.000000 0.000000
LeftFoot 0.503926 15.630122 3.773858
LeftToeBase -149.888498 -0.000000 0.000000
RightUpLeg -3.772632 -17.736781 -4.648936
RightLeg 5.142644 -0.000000 -0.000000
RightFoot 7.613658 -32.551353 6.130207
RightToeBase 4.749471 -0.000000 -0.000000
881
root 15.240023 36.938567 -19.600447 -180.250967 -14.586055 -161.309550
Spine -4.526177 1.318176 2.139484
Head 21.058679 -24.132166 9.850866
LeftShoulder -10.226120 -19.386841 2.595916
LeftArm -30.261062 4.491784 -67.748509
LeftForeArm -5.280925 -0.000000 15.433863
LeftHand -0.848720 0.000000 1.828548
LeftHandThumb1 -26.253704 0.000000 33.147579
RightShoulder -11.183107 -8.691101 9.940294
RightArm 33.500060 -4.243215 63.503229
RightForeArm -32.329257 -0.000000 67.617705
RightHand -8.996090 0.000000 1.993061
RightHandThumb1 -24.326973 -0.000000 -32.862282
LeftUpLeg 3.162407 6.760720 12.089041
LeftLeg -14.080215 -0.000000 0.000000
LeftFoot 0.576682 16.115366 4.328669
LeftToeBase -150.112595 -0.000000 0.000000
RightUpLeg -3.896801 -17.732441 -4.122889
RightLeg 5.249224 -0.000000 -0.000000
RightFoot 6.858459 -32.403973 6.992855
RightToeBase 4.765782 -0.000000 -0.000000
882
root 15.310001 36.900033 -19.581060 -180.266440 -14.539181 -161.416839
Spine -4.451218 1.227341 2.016188
Head 20.870465 -23.954496 9.820158
LeftShoulder -10.111662 -19.375364 2.517310
LeftArm -29.372188 4.943965 -68.507326
LeftForeArm -5.139284 0.000000 15.502227
LeftHand -0.888145 -0.000000 1.981865
LeftHandThumb1 -26.253704 0.000000 33.147579
RightShoulder -11.184962 -8.978983 10.242376
RightArm 33.420867 -4.862746 63.232963
RightForeArm -32.406126 -0.000000 67.741108
RightHand -8.868327 -0.000000 2.290384
RightHandThumb1 -24.326973 -0.000000 -32.862282
LeftUpLeg 3.102471 6.660080 12.010799
LeftLeg -14.064445 -0.000000 0.000000
LeftFoot 0.691118 16.644288 4.966640
LeftToeBase -150.253618 -0.000000 0.000000
RightUpLeg -4.020788 -17.800330 -3.577417
RightLeg 5.404712 -0.000000 -0.000000
RightFoot 6.210122 -32.130329 7.652781
RightToeBase 4.736260 -0.000000 -0.000000
